<svg viewBox="0 0 1920 1071" fill="none" xmlns="http://www.w3.org/2000/svg">
<g clip-path="url(#clip0_3356_1179)">
<path d="M1920 0H0V1070.2H1920V0Z" fill="#222222"/>
<path d="M0 878.6C0 878.6 247.7 735.4 566.4 812.2C885.1 889 1056 733.5 1171.2 666.3C1286.4 599.1 1664.6 308.4 1920 491.2V1069.9H0V878.6Z" fill="#333333"/>
<path d="M0 840.6C0 840.6 400.5 592.2 678.9 698.9C957.3 805.6 1333.2 759.2 1333.2 759.2V1070.2H0V840.6Z" fill="#333333"/>
<path d="M0 654.7C0 654.7 255.7 849.4 743 673.9C851.3 634.7 958.4 592.5 1067.1 554.1C1134.3 530.3 1206.1 513 1277.9 514.9C1348.6 517.2 1417.7 536.8 1482.6 564.4C1519.5 580.5 1555.2 599.3 1589.7 619.7C1622.7 639.3 1653.8 662.7 1689.5 677.7C1721.4 690.8 1754.8 698.8 1789 703C1814 706.1 1839.3 707.6 1864.3 708.4C1882.7 708.8 1901.5 708.8 1920 708.8V1069.8H0V654.7Z" fill="url(#paint0_linear_3356_1179)"/>
<path d="M1425.8 799.9L1408.1 799.5L1406.6 798.3H1406.2L1494.5 748.4L1499.1 746.5H1498.3C1499.8 746.1 1501 745.7 1501.8 745.3L1517.9 736.9L1522.9 734.2L1544.8 727.3L1527.5 739.2C1527.1 740 1528.3 740.4 1530.2 740.7C1532.9 741.1 1538.6 740.7 1542.5 739.5L1585.9 728.7H1584.4L1587.1 727.9L1630.5 722.5C1629.7 722.1 1627 722.1 1624 722.1L1615.6 723.3H1613.7C1612.2 723.3 1609.9 723.3 1607.9 723.7L1603.7 724.1L1591.4 724.9C1587.9 725.3 1584.5 725.7 1581.8 726.4L1576 727.9H1576.8H1574.9L1555.3 732.1L1572.2 723.3C1575.3 721.8 1574.9 720.2 1571.4 719.5L1551.8 715.3C1556.8 714.1 1561.8 712.6 1564.5 711.8C1566 711.4 1566.4 711 1567.2 710.3L1570.3 709.9C1570.3 709.9 1577.2 708.4 1577.6 707.6V707.2C1580.3 706 1582.2 705.3 1584.9 704.1C1585.7 703.7 1586.8 703.3 1587.2 702.9C1587.6 702.5 1587.6 702.5 1587.6 702.1C1587.6 701.7 1588 700.9 1588 700.6C1588.4 699.8 1586.1 699.8 1583.8 699.4C1581.5 699 1580 698.6 1577.3 698.6C1575.4 698.6 1573.1 698.6 1571.2 699C1570.4 699 1569.3 699.4 1568.5 699.4C1567 699.4 1565.8 699.4 1564.7 699.4C1561.6 699.4 1557.4 700.2 1554.7 700.9C1554.3 700.9 1553.9 701.3 1553.5 701.3C1553.1 701.3 1552.3 701.3 1552 701.7C1545.9 702.9 1544.3 704.4 1542.4 705.5C1541.6 705.9 1540.5 706.3 1540.1 707C1538.6 707 1537 707.4 1537 707.4C1533.2 708.6 1533.5 709.7 1533.5 709.7L1535.8 710.1C1535.4 710.1 1535.4 710.5 1535 710.5C1534.6 710.5 1534.2 710.9 1533.8 710.9C1531.9 711.7 1531.1 712.4 1530.7 712.8L1527.2 714.3L1486.1 718.9C1478.8 719.7 1471.9 721.2 1467.7 722.7L1445.4 731.5L1445 727.3H1443.1L1444.3 725.8C1444.7 725 1443.9 724.6 1441.6 724.3L1432.8 723.5L1430.9 723.1C1429.7 722.7 1428.2 722.7 1426.3 722.7H1423.6L1419.4 721.5C1417.9 721.1 1414.8 721.1 1412.1 721.9L1432.1 727.3L1431.3 728.1H1429L1423.6 738.9C1423.2 740.1 1426.7 740.4 1431.7 740.1C1434.8 739.7 1438.2 739.3 1441.3 738.6L1467.8 729.8L1462.8 732.1L1458.6 734L1456.3 734.8L1441.3 740.9L1432.9 744.4C1432.1 744.8 1431.4 745.2 1431.7 745.6L1428.2 747.1L1351.4 774.7L1300.3 797.4H1298L1292.2 798.6L1271.8 799C1266.4 799.4 1265.3 799.8 1261.4 800.9L1260.2 801.3H1299.4L1304.4 800.5L1302.5 801.3H1315.6L1323.7 797.8H1322.9L1346.3 788.2L1371.6 777.8L1438.8 757.4L1438.4 757.8L1438 758.2L1412.3 778.6L1381.2 797.8H1380.8L1372.7 801.3H1385.8L1387.7 800.5L1388.5 801.3H1427.7L1428.1 800.9C1429.6 800.3 1429.2 800.3 1425.8 799.9Z" fill="#333333"/>
<path d="M1305.6 565.6L1288.3 687.7L1287.9 787.2H1314L1319.4 700.4L1344 612.5L1366.3 702.3L1379.7 787.2H1407.4L1380.5 565.6H1305.6Z" fill="#0784C3"/>
<path d="M1286.4 786L1282.2 790.2L1261.1 792.5C1256.1 794 1255.3 795.2 1253.8 800.2L1253.4 801.4H1297.2L1300.3 797.6V801.4H1314.9V785.7H1303.4L1286.4 786Z" fill="#555555"/>
<path d="M1407.7 786L1411.9 790.2L1433 792.5C1438 794 1438.8 795.2 1440.3 800.2L1440.7 801.4H1397L1393.9 797.6V801.4H1379.3V785.7H1390.8L1407.7 786Z" fill="#555555"/>
<path d="M1333.2 425.1L1303.6 441.6L1306.3 511.5L1304 557.2C1303.6 561.8 1307.5 565.6 1312.1 565.6H1373.2C1378.2 565.6 1381.6 561.4 1381.3 556.8L1377.5 509.6L1392.5 443.6L1359.5 425.2L1333.2 425.1Z" fill="#474963"/>
<path d="M1359.4 426.2L1346.3 450L1333.2 426.2V409H1359.4V426.2Z" fill="#FEC55E"/>
<path d="M1370.9 373.6C1370.5 372.4 1370.1 371.3 1369.7 370.5C1368.5 368.6 1367.4 366.3 1366.6 364.4C1364.7 360.6 1362.8 361.3 1359.3 360.2C1356.2 359 1353.2 357.1 1349.7 356.7C1347.4 356.7 1345.5 357.5 1343.6 358.2C1342.8 358.6 1342.1 359 1341.3 359.4C1339.8 359.8 1338.2 359.4 1336.7 359.4C1333.2 359.4 1329.8 362.1 1329 365.5C1329 365.9 1328.6 366.7 1328.6 367C1328.2 367.4 1327.8 367.8 1327.4 368.2C1322.8 372.4 1325.5 379.7 1326.2 385.1C1326.6 388.2 1326.2 391.2 1328.9 393.5L1327.7 393.1C1330.8 396.2 1334.6 397.7 1338.8 398.5C1343 399.3 1347.2 399.3 1351.5 399.3C1356.5 399.3 1361.5 399.3 1366.5 399.3C1367.3 399.3 1368.4 399.3 1369.2 398.5C1370 397.7 1370.4 396.6 1370.4 395.4C1371.2 389.6 1370.8 383.9 1371.2 378.1C1370.9 376.3 1371.3 374.8 1370.9 373.6Z" fill="#4D5068"/>
<path opacity="0.3" d="M1333.2 418.9L1337 425.4C1339.3 429.6 1343.9 432.3 1348.9 432.3C1353.1 432.3 1357.3 430.4 1359.7 426.9V409.2H1333.2V418.9Z" fill="#191C3C"/>
<path d="M1330.9 382.5V402.5C1330.9 407.1 1332.1 411.3 1334.4 415.6L1338.2 422.1C1340.5 426.3 1345.1 429 1350.1 429C1354.7 429 1359.3 426.7 1361.6 422.5L1362.4 421.3C1364.7 417.5 1366.2 412.5 1366.2 407.9V388.7V371H1331.6L1330.9 382.5Z" fill="#FEC55E"/>
<path d="M1331.3 405.5L1327.5 403.2C1327.5 403.2 1323.3 397.1 1325.2 392.8C1325.2 392.8 1326.7 389.3 1329.4 390.9L1333.2 394.7L1331.3 405.5Z" fill="#FEC55E"/>
<path d="M1365.1 405.5L1368.9 403.2C1368.9 403.2 1373.1 397.1 1371.2 392.8C1371.2 392.8 1369.7 389.3 1367 390.9L1363.2 394.7L1365.1 405.5Z" fill="#FEC55E"/>
<path d="M1329.8 385.9C1330.2 389 1330.6 392 1330.6 395.5C1330.6 396.7 1330.2 400.5 1332.5 399.3C1333.3 398.9 1333.7 398.1 1333.7 397.4C1334.1 394.3 1331.4 391.6 1332.9 389C1334.1 387.1 1336.4 385.5 1336.7 383.2C1337.1 381.7 1336.3 379.7 1335.9 378.2C1335.9 377 1335.9 375.5 1336.7 374.4C1337.5 373.2 1339 372.9 1340.2 373.2C1341.4 373.5 1342.1 374.7 1343.3 375.5C1345.6 377.4 1348.7 378.2 1351.4 377C1352.9 376.2 1354.5 375.1 1356 374.3C1357.5 373.1 1359.5 372.8 1361 373.1C1363.7 373.9 1364.5 376.6 1365.2 379.2C1365.6 381.9 1366.4 385 1366 387.6C1365.6 389.9 1364.5 391.8 1364.1 394.1C1364.1 394.5 1363.7 395.3 1363.7 395.6C1363.7 396.8 1364.5 397.5 1364.9 398.3C1364.9 398.3 1364.9 398.7 1365.3 398.7C1365.7 398.7 1365.7 398.7 1366.1 398.3C1367.6 397.1 1368 394.8 1368.4 392.9C1368.8 390.2 1369.9 388.7 1369.2 386C1368 380.6 1369.6 375.2 1368.4 369.9C1368.4 369.5 1368 368.7 1368 368.4C1367.6 368 1366.8 367.6 1366.5 367.2C1358.8 364.5 1350.8 364.9 1342.7 365.3C1340 365.3 1336.9 365.7 1334.6 367.2C1331.9 369.1 1330.4 372.2 1329.6 375.6C1329 379 1329.4 382.5 1329.8 385.9Z" fill="#4D5068"/>
<path d="M1260.7 484.6L1259.5 481.1L1224.2 458.4C1226.1 456.5 1229.6 456.1 1231.9 457.6L1238.8 461.8L1241.5 461.4C1243.4 461 1245.7 461.4 1247.6 462.6L1251.1 464.9L1263 468.4C1266.1 469.2 1268.8 471.9 1269.9 474.9L1272.6 481.4L1260.7 484.6Z" fill="#FEC55E"/>
<path d="M1431.9 484.6L1433.1 481.1L1468.4 458.4C1466.5 456.5 1463 456.1 1460.7 457.6L1453.8 461.8L1451.1 461.4C1449.2 461 1446.9 461.4 1445 462.6L1441.5 464.9L1429.6 468.4C1426.5 469.2 1423.8 471.9 1422.7 474.9L1420 481.4L1431.9 484.6Z" fill="#FEC55E"/>
<path d="M1333.2 425.1L1298.3 444.7C1292.2 448.2 1287.9 454.3 1287.5 461.6L1284.4 499.6L1273.3 481.2L1258.3 485.8L1279.4 533C1281.3 537.2 1286.7 539.1 1290.9 537.2C1293.6 535.7 1296.3 533.7 1297.8 530.3L1308.9 474.2L1333.1 438.5V425.1H1333.2Z" fill="#474963"/>
<path d="M1359.4 425.1L1394.3 444.7C1400.4 448.2 1404.7 454.3 1405.1 461.6L1408.2 499.6L1419.3 481.2L1434.3 485.8L1413.2 533C1411.3 537.2 1405.9 539.1 1401.7 537.2C1399 535.7 1396.3 533.7 1394.8 530.3L1383.7 474.2L1359.5 438.5V425.1H1359.4Z" fill="#474963"/>
<path d="M1381.2 561.8H1305.2V573.3H1381.2V561.8Z" fill="#2D1582"/>
<path d="M1349 561.8H1335.9V573.3H1349V561.8Z" fill="#FEC55E"/>
<path opacity="0.17" d="M1377.8 509.6L1384.7 478.9C1382.4 482.4 1380.5 486.2 1378.6 490C1377.8 491.5 1378.6 493.1 1379.8 493.8C1378.3 497.3 1372.5 503 1370.2 505.3C1368.3 507.2 1373.7 507.6 1376 506.8C1376 506.8 1376 506.8 1376.4 506.8C1374.9 509.5 1373.3 512.2 1371.4 514.5C1370.2 516 1367.2 518.3 1369.1 518C1370.6 517.6 1375.6 518.8 1377.2 518.4C1376.4 520.3 1376 521.9 1375.3 523.8C1374.5 525.7 1375.7 527.6 1377.2 528C1376 528 1377.6 538.8 1378 539.9C1378.8 543.4 1379.5 545.7 1381.1 548L1379.6 521.5V521.1L1377.8 509.6Z" fill="#191C3C"/>
<path opacity="0.17" d="M1312.9 516.5C1306.8 513.4 1305.2 510.4 1307.5 507.3C1309.8 508.1 1313.3 507.3 1315.6 508.1C1317.1 508.5 1316.4 506.6 1311.4 506.2C1312.2 506.2 1306 498.5 1308.3 498.5C1309.5 498.5 1310.2 497 1309.8 495.8C1307.1 491.2 1306.7 484.7 1305.2 479.3L1306 502.7C1306.4 503.1 1307.2 503.5 1307.5 504.2C1307.1 504.2 1306.3 503.8 1306 503.8L1306.4 511.9V514.6C1306.8 515 1306.8 515.4 1307.2 515.8C1306.8 515.8 1306.8 515.8 1306.4 515.8L1304.9 551.1C1305.3 550.7 1305.7 550.3 1305.7 549.9C1305.7 542.6 1308 536.5 1308.8 529.5C1309.2 527.2 1307.3 518.7 1312.3 519.9C1313.3 519.9 1314.4 517.2 1312.9 516.5Z" fill="#191C3C"/>
<path d="M1333.2 425.1L1325.6 429.7L1334.4 462L1346.3 450L1333.2 425.1Z" fill="#191C3C"/>
<path d="M1359.4 425.1L1367.4 429.7L1358.2 462L1346.3 450L1359.4 425.1Z" fill="#191C3C"/>
<path d="M1346.3 463.1C1347.13 463.1 1347.8 462.429 1347.8 461.6C1347.8 460.772 1347.13 460.1 1346.3 460.1C1345.47 460.1 1344.8 460.772 1344.8 461.6C1344.8 462.429 1345.47 463.1 1346.3 463.1Z" fill="#191C3C"/>
<path d="M1347.1 479.2C1347.1 480 1346.3 480.7 1345.6 480.7C1344.8 480.7 1344.1 479.9 1344.1 479.2C1344.1 478.4 1344.9 477.7 1345.6 477.7C1346.3 477.7 1347.1 478.5 1347.1 479.2Z" fill="#191C3C"/>
<path d="M1346.3 496.5C1346.3 497.3 1345.5 498 1344.8 498C1344 498 1343.3 497.2 1343.3 496.5C1343.3 495.7 1344.1 495 1344.8 495C1345.9 495.4 1346.3 495.7 1346.3 496.5Z" fill="#191C3C"/>
<path d="M1344.4 515.7C1345.23 515.7 1345.9 515.029 1345.9 514.2C1345.9 513.372 1345.23 512.7 1344.4 512.7C1343.57 512.7 1342.9 513.372 1342.9 514.2C1342.9 515.029 1343.57 515.7 1344.4 515.7Z" fill="#191C3C"/>
<path d="M1343.6 533.3C1344.43 533.3 1345.1 532.629 1345.1 531.8C1345.1 530.972 1344.43 530.3 1343.6 530.3C1342.77 530.3 1342.1 530.972 1342.1 531.8C1342.1 532.629 1342.77 533.3 1343.6 533.3Z" fill="#191C3C"/>
<path d="M1344.4 549.1C1344.4 549.9 1343.6 550.6 1342.9 550.6C1342.1 550.6 1341.4 549.8 1341.4 549.1C1341.4 548.4 1342.2 547.6 1342.9 547.6C1344 548 1344.4 548.4 1344.4 549.1Z" fill="#191C3C"/>
<g opacity="0.11">
<path d="M1319.4 700.4L1316.7 744.9C1316.3 745.3 1315.9 745.3 1315.5 745.7C1315.1 731.9 1312.8 718.1 1309 705C1311.3 704.2 1313.6 702.7 1315.1 700.8C1313.6 700.8 1312 700.4 1310.5 700.4C1311.7 699.6 1312.8 698.5 1313.2 697.3C1309.7 697.3 1306.3 697.3 1302.8 697.3C1312.4 695 1319.7 685.8 1319.3 676.2C1318.1 676.6 1316.6 676.2 1315.5 675.4C1319 670 1322.4 664.6 1325.9 658.9C1326.7 658.1 1327.1 657 1326.7 655.8C1324.8 657.3 1322.9 658.5 1320.6 658.9C1323.3 655.8 1326 652.4 1327.1 648.5C1328.6 643.9 1328.3 638.9 1329 634.3C1330.5 625.5 1335.9 617.8 1343.6 613.6L1319.4 700.4ZM1344.4 615.2C1344.4 614.4 1344.4 614 1344.4 613.3L1344 612.9L1344.4 615.2Z" fill="#191C3C"/>
</g>
<g opacity="0.11">
<path d="M1406.6 780.7L1381.3 569.9C1380.9 569.9 1380.5 569.9 1380.5 569.9L1380.1 571.1C1378.9 584.9 1378.9 598.7 1381.3 612.2C1382.5 620.3 1384.4 628.3 1382.5 636.4C1382.1 639.1 1381 641 1379.8 643.7C1378.6 646.8 1378.3 650.6 1377.9 653.7C1377.1 657.2 1376.7 660.2 1376.4 663.7C1376 667.2 1375.2 670.6 1375.2 674.5C1375.2 674.9 1388.6 671.8 1390.2 670.3C1389 676.4 1386.7 683 1384.4 688.7C1385.9 685.6 1387.9 682.6 1390.5 680.3C1388.2 684.5 1387 689.1 1386.3 694.1C1389 693.7 1391.7 693.3 1394.7 693.3C1392.4 698.7 1390.1 703.7 1387.4 709C1390.5 707.5 1393.2 705.9 1396.2 704.4C1395.4 717.5 1394.7 730.5 1393.9 743.2C1393.5 748.2 1393.5 753.2 1395.4 757.8C1396.9 761.3 1399.2 763.9 1401.2 767C1404.3 772.4 1405.8 778.9 1405 785C1405.4 783.7 1405.8 782.2 1406.6 780.7Z" fill="#191C3C"/>
</g>
<path d="M1340.9 410.9C1340.5 412.1 1340.1 412.8 1339.7 414C1339.3 414.8 1338.2 415.9 1337 415.5C1335.8 415.1 1335.5 413.6 1335.5 412.4C1335.1 408.9 1335.9 405.9 1334.7 402.4C1334.3 401.6 1333.9 400.9 1333.9 399.7C1333.9 398.9 1333.9 398.2 1333.9 397C1333.9 396.2 1333.1 395.5 1332.4 395.5C1331.6 395.5 1330.9 396.3 1330.9 397C1330.9 397.7 1330.9 398.5 1330.9 399.3C1331.7 403.1 1332.1 406.6 1331.7 410.1C1331.3 413.9 1332.9 417.4 1334 420.9C1334.4 422.1 1334.8 423.2 1335.5 424.4C1337 427.1 1340.1 429 1343.2 429.8C1346.3 430.6 1349.7 430.6 1352.8 430.6C1354.7 430.6 1357 430.6 1358.9 429.8C1364.7 427.5 1366.2 416.7 1367 411.4C1367.4 409.1 1366.6 407.2 1366.6 404.9C1366.2 402.2 1367.4 399.1 1367.8 396.5C1367.8 396.1 1367.8 395.7 1367.4 395.3C1367 394.9 1366.2 394.9 1366.2 394.5C1365.4 395.3 1364.3 396.4 1363.9 397.6C1363.9 398 1363.9 398.8 1363.9 399.1C1363.9 401.4 1363.9 403.7 1363.5 405.6C1362.7 408.3 1362 410.6 1361.6 413.3C1361.6 414.5 1361.2 416 1359.7 416.4C1358.9 416.8 1357.8 416 1357.4 414.9C1357 414.1 1357 413 1357 411.8C1357 410.6 1357 409.9 1356.2 409.1C1355.4 407.9 1353.9 407.9 1352.4 407.9C1349 407.8 1343.2 405.9 1340.9 410.9Z" fill="#4D5068"/>
<path d="M1114.8 627.1C1114.8 627.1 1114.4 627.1 1114 627.1C1112.5 627.1 1111.7 626.3 1111.3 625.6C1111.3 624.8 1112.1 623.7 1112.8 622.5C1114 621.3 1115.1 620.2 1116.6 618.7C1117.4 618.3 1117.8 617.5 1118.5 617.2C1118.9 616.8 1118.9 616.4 1119.3 616C1120.5 614.5 1122.8 612.9 1123.9 611C1124.3 610.6 1124.3 610.2 1124.3 609.8C1123.9 609.4 1122.8 609.4 1121.6 609.4C1120.4 609.8 1119.7 610.2 1118.9 610.6V610.2C1118.5 610.2 1118.1 609.8 1117.4 610.2H1117C1116.6 610.2 1116.2 610.6 1116.2 610.6C1115.8 610.6 1115.8 610.2 1115.4 610.2C1114.6 609.8 1113.5 609.8 1112.7 609.8C1109.6 609.4 1106.2 609.4 1102.3 610.2C1101.9 610.2 1101.5 610.2 1101.1 610.2L1101.9 609.4C1102.3 609 1101.9 608.6 1101.1 609H1099.9C1099.9 609 1099.5 609 1099.1 609L1083.4 610.9C1083 610.9 1082.2 611.3 1082.2 611.3L1078 615.1C1077.6 615.5 1078 615.9 1078.8 615.5L1088 615.9L1088.8 615.5L1085 619.3C1084.2 620.1 1084.6 620.5 1086.2 620.5H1090.4L1088.1 622.8L1078.9 623.6L1067 624.4L1066.6 624.8L1053.2 624.4L1047.8 614L1049.3 611.7L1048.9 609.4L1050.4 607.5L1050 605.6C1048.8 606 1048.5 606.8 1048.5 607.1V607.5L1047 609.4H1046.6V608.6L1043.1 606.7L1042.7 607.1C1042.3 607.5 1042.3 607.5 1042.7 607.9L1045 609.4V609.8L1044.6 610.2L1043.8 609.4L1039.2 608.6L1038.4 609.4L1041.5 609.8L1043 610.6L1042.2 611.4L1036.8 610.6V611C1036.8 611 1036.8 611 1037.2 611.4L1041 612.2L1041.4 614.5L1042.6 615.7L1043.4 627.2L1061.1 628.7L1060.7 629.1L1068 630.6L1063.8 634.4C1062.3 635.9 1061.5 637.1 1060.7 638.6L1060.3 640.1L1041.9 657H1042.3L1041.1 657.8L1015 675.1L1010 692.8L1008.8 694L998.8 695.9L990 697.4C990 697.4 990 697.4 989.6 697.4C989.2 697.8 987.3 699.7 994.6 699.3C995.4 699.3 996.1 699.7 997.3 699.7C1003.4 699.7 1016.1 699.3 1016.1 699.3C1017.3 698.9 1018.4 698.1 1018.8 697.8L1019.6 697C1019.6 697 1019.6 696.6 1020 696.6C1020 696.2 1020 696.2 1019.6 695.8L1023.1 692.3C1023.1 692.3 1043.5 677.7 1045.4 671.6L1061.1 659.3L1061.9 658.5L1061.5 659.7C1065 658.2 1068 656.6 1069.9 654.7L1080.3 644.3C1081.1 644.3 1081.8 643.9 1082.6 643.9L1085.7 642.7L1096.5 634.3H1097.7L1106.9 625.9C1107.7 625.1 1107.3 624.7 1106.5 624.7L1098.1 622.4L1101.2 619.7C1101.6 619.7 1102.4 619.3 1103.1 619.3C1104.6 618.9 1106.6 618.1 1108.1 617.8C1107.3 618.2 1106.6 618.6 1106.2 619C1104.7 620.2 1103.1 621.3 1103.5 622.5C1103.5 622.9 1103.9 623.3 1104.3 623.3C1105.5 624.1 1107 624.5 1108.5 624.8C1108.5 624.8 1108.5 624.8 1108.9 624.8C1108.9 624.4 1108.9 624 1109.3 623.6C1110.1 624 1110.8 624.4 1111.6 624.8C1111.7 627.5 1112.8 627.5 1114.8 627.1C1114.4 627.1 1114.8 627.5 1114.8 627.1ZM1033 675.5L1032.6 676.7V677.1L1028.8 681.3L1026.9 683.6C1027.7 682.1 1027.7 680.5 1026.5 679.4L1033 675.5Z" fill="#333333"/>
<path d="M1009.5 683.5L1008.7 688.9L994.5 695.8L983.7 698.1C983.7 698.1 984.5 702.7 992.9 703.1C1001.3 703.5 1017.9 702.3 1017.9 702.3C1019.1 701.1 1019.4 699.6 1019.4 698.1V696.2C1019.4 695 1018.6 693.9 1017.5 693.5V684.7L1009.5 683.5Z" fill="#E0A546"/>
<path d="M1019.9 696.2C1019.9 695.8 1019.9 695.4 1019.5 695C1018.7 695.4 1017.2 697.7 1016.4 697.7C1011 697.7 1004.9 698.5 1000.3 698.1C995.7 698.1 993 697.7 991.9 696.6L983.8 698.5C983.8 698.5 984.6 703.1 993 703.5C1001.4 703.9 1018 702.7 1018 702.7C1019.2 701.5 1019.5 700 1019.5 698.5L1019.9 696.2Z" fill="#444444"/>
<path d="M1000.3 685.4V688.1L979.2 696.9C979.2 696.9 978 703.8 991.1 702.3L1014.1 697.7C1014.1 697.7 1014.9 695 1015.3 692.7C1015.7 691.2 1014.9 689.6 1013.8 688.9L1009.2 684.3L1000.3 685.4Z" fill="#FEC55E"/>
<path d="M1015.3 690.4C1014.1 692.3 1012.6 693.5 1010.3 694.2L1001.5 696.9C990.4 698.1 989.2 694.2 989.2 692.7L979.2 696.9C979.2 696.9 978 703.8 991.1 702.3L1014.1 697.7C1014.1 697.7 1014.9 695 1015.3 692.7C1016.1 692 1015.7 691.2 1015.3 690.4Z" fill="#333333"/>
<path d="M1021.4 593.7L1017.6 631.3C1024.5 647.4 1018 684.7 1018 684.7H1009.6L1004.6 636.7L999.6 623.3L1021.4 593.7Z" fill="#3A3C4E"/>
<path opacity="0.3" d="M1003.8 635.5L1017.2 602.9L1020.3 600.2C1020.3 600.2 1020.3 600.2 1020.7 599.8L1021.5 593.7L999.2 623.3L1003.8 635.5Z" fill="#191C3C"/>
<path opacity="0.3" d="M1009.2 684.7H1011.5C1011.5 684.7 1013.4 660.9 1005 647.1L1009.2 684.7Z" fill="#191C3C"/>
<path d="M994.6 580.6L981.5 640.5L1000.7 685L1009.9 684.2C1009.9 684.2 1012.2 653.1 999.5 641.6L1015.2 602.8L1018.3 600.1C1021 597.8 1022.9 594.3 1022.9 590.9V577.5L994.6 580.6Z" fill="#4D5068"/>
<path d="M1036.4 506.1C1034.9 503.8 1034.5 501.1 1034.1 498.8C1033.7 495.7 1033.7 492.7 1034.1 489.6C1034.1 488.4 1034.5 486.9 1034.1 485.8C1034.1 485 1033.7 483.9 1033.3 483.1C1032.5 479.3 1032.9 474.7 1032.1 470.8C1032.1 470 1031.7 468.9 1030.9 468.1C1029.7 466.9 1028.2 466.9 1027.1 467.3C1025.9 468.1 1025.2 469.2 1024.8 470.8V470.4C1022.9 475.4 1024 480.8 1022.9 486.1C1022.1 489.2 1021.4 491.9 1020.6 494.9C1020.2 498 1020.2 501.4 1022.1 503.7C1022.9 504.5 1023.6 505.2 1024.8 506C1027.5 507.9 1030.2 509.1 1033.2 510.2C1032.4 509.4 1031.7 508.3 1031.7 507.1C1033.2 508.3 1034.8 509.4 1036.7 510.2C1038.6 511 1040.5 511 1042.5 510.2C1040.6 510 1038 508.4 1036.4 506.1Z" fill="#DD9C3E"/>
<path d="M1028 506.9C1027.2 506.1 1026.1 505.7 1025.3 504.6C1023.4 502.3 1023 498.8 1023.8 495.8C1024.2 492.7 1025.3 490 1026.1 487C1026.9 482 1026.1 472.4 1026.1 472.4C1026.1 470.9 1025.3 470.5 1025.3 470.5C1023.4 475.5 1024.5 480.9 1023.4 486.2C1022.6 489.3 1021.9 492 1021.1 495C1020.7 498.1 1020.7 501.5 1022.6 503.8C1023.4 504.6 1024.1 505.3 1025.3 506.1C1028 508 1030.7 509.2 1033.7 510.3C1033.7 510.3 1033.7 510.3 1033.3 509.9C1031.4 508.8 1029.5 508 1028 506.9Z" fill="#BF9447"/>
<path d="M1034.9 507.6C1034.9 508 1034.9 508.4 1035.3 508.8C1036.1 509.2 1036.8 509.6 1037.6 510C1038.4 510 1038.8 510.4 1039.1 510.4C1037.2 509.6 1036 508.8 1034.9 507.6Z" fill="#BF9447"/>
<path d="M1024.9 471.2C1024.1 471.6 1023.4 471.6 1022.6 471.2C1021.8 470.8 1021.4 470.4 1020.7 470C1019.5 469.2 1017.6 469.2 1016.1 468.8C1011.1 468 1005.7 467.6 1001.9 470.3H1001.5C1005.3 479.5 1009.9 488.7 1014.6 497.9C1015.4 497.1 1016.5 496.4 1017.3 495.6C1021.1 492.1 1025.4 488.3 1026.1 483.3C1026.4 479.2 1024.5 475.4 1024.9 471.2Z" fill="#DD9C3E"/>
<path d="M1015.6 491.9H1002.2V518.8H1015.6V491.9Z" fill="#FEC55E"/>
<path opacity="0.3" d="M1007.6 499.6L1002.6 498.4V491.5H1016V492.7C1016.1 497.3 1011.8 500.7 1007.6 499.6Z" fill="#191C3C"/>
<path d="M993.4 483.8V495.7C993.4 497.6 994.9 498.8 996.5 498.8H1004.6C1009.6 498.8 1013.4 495 1013.4 490V485.4V479.6C1013.4 478.1 1012.6 476.5 1011.5 475.8L1006.1 471.6C1004.6 470.4 1002.6 470.4 1001.1 471.2C998.8 472.3 995.7 475.8 993.4 483.8Z" fill="#FEC55E"/>
<path d="M1000.7 470L1005.7 472.7C1008 473.9 1009.5 475.8 1009.5 478.5V480.4L997.2 477.7L1000.7 470Z" fill="#474963"/>
<path d="M979.6 485.4L992.7 486.6L993.9 485.4L998.9 486.2C998.9 486.2 1004.7 488.1 1010.8 483.1L1012 478.9L996.6 471.2L979.6 485.4Z" fill="#474963"/>
<path d="M982.3 483.1L1000.7 478.1C1001.5 478.1 1001.9 477.3 1001.9 476.9V469.2C1001.9 468.4 1001.1 467.7 1000 468L981.6 473C980.8 473 980.4 473.8 980.4 474.2V481.9C980.4 482.3 981.1 483.1 982.3 483.1Z" fill="#474963"/>
<path d="M1000.7 478.1L1024.5 489.6C1024.5 489.6 1024.9 489.6 1024.9 489.2V484.6L1000.7 472.7V478.1Z" fill="#191C3C"/>
<path d="M1022.6 488.8C1022.6 488.8 1023 488.8 1023 488.4V483.8L1024.5 484.6V489.2C1024.5 489.6 1024.1 489.6 1024.1 489.6L1022.6 488.8Z" fill="#474963"/>
<path d="M1019.5 487.3C1019.5 487.3 1019.9 487.3 1019.9 486.9V482.3L1021.4 483.1V487.7C1021.4 488.1 1021 488.1 1021 488.1L1019.5 487.3Z" fill="#474963"/>
<path d="M1016.1 485.8C1016.1 485.8 1016.5 485.8 1016.5 485.4V480.8L1018 481.6V486.2C1018 486.6 1017.6 486.6 1017.6 486.6L1016.1 485.8Z" fill="#474963"/>
<path d="M1012.6 483.8C1012.6 483.8 1013 483.8 1013 483.4V478.8L1014.5 479.6V484.2C1014.5 484.6 1014.1 484.6 1014.1 484.6L1012.6 483.8Z" fill="#474963"/>
<path d="M1009.2 482.3C1009.2 482.3 1009.6 482.3 1009.6 481.9V477.3L1011.1 478.1V482.7C1011.1 483.1 1010.7 483.1 1010.7 483.1L1009.2 482.3Z" fill="#474963"/>
<path d="M1005.7 480.8C1005.7 480.8 1006.1 480.8 1006.1 480.4V476.2L1007.6 477V481.6C1007.6 482 1007.2 482 1007.2 482L1005.7 480.8Z" fill="#474963"/>
<path d="M1002.2 478.8C1002.2 478.8 1002.6 478.8 1002.6 478.4V473.8L1004.1 474.6V479.2C1004.1 479.6 1003.7 479.6 1003.7 479.6L1002.2 478.8Z" fill="#474963"/>
<path d="M979.6 485.4L998 480.4C998.8 480.4 999.2 479.6 999.2 479.2V468.8C999.2 468 998.4 467.3 997.3 467.6L978.9 472.6C978.1 472.6 977.7 473.4 977.7 473.8V484.2C978 485 978.8 485.8 979.6 485.4Z" fill="#191C3C"/>
<path d="M987.6 478.4C988.263 478.4 988.8 477.549 988.8 476.5C988.8 475.45 988.263 474.6 987.6 474.6C986.937 474.6 986.4 475.45 986.4 476.5C986.4 477.549 986.937 478.4 987.6 478.4Z" fill="#474963"/>
<path d="M1013.8 485C1013.8 485 1016.9 482.3 1018.4 485V489.2C1018.4 490.7 1017.6 492.3 1016.1 493C1015.3 493.4 1014.6 493.4 1013.4 493L1013.8 485Z" fill="#FEC55E"/>
<path d="M1024.9 474.6L1022.2 471.9C1021.4 471.1 1021.8 470.4 1022.2 470L1022.6 469.6C1023.4 468.8 1024.1 469.2 1024.5 469.6L1027.2 472.3C1028 473.1 1027.6 473.8 1027.2 474.2L1026.8 474.6C1026.4 475 1025.7 475 1024.9 474.6Z" fill="#191C3C"/>
<path opacity="0.3" d="M1019.5 598.7C1021.4 596.8 1022.6 593.7 1022.6 591V577.6L994.6 580.7L991.1 596.1V597.6C1004.5 600.7 1014.9 587.2 1014.9 587.2L1019.5 598.7Z" fill="#191C3C"/>
<path d="M987.6 509.2V536.1C987.6 539.6 988.4 543 989.5 546.5L991 550.3V593.7C1004.4 596.8 1014.8 583.3 1014.8 583.3L1021.7 601C1024.4 597.2 1025.9 592.6 1025.5 588.3L1023.6 548.7L1024.4 509.1L1016 511L1014.8 512.2C1011.3 516 1005.2 515.7 1002.1 511L987.6 509.2Z" fill="#0784C3"/>
<path d="M923.5 476.9L915.4 475.4L916.2 476.6C916.2 477 916.6 477 917 477.4L923.5 479.3L927.3 485.1L930.8 488.2L949.2 518.2L975.3 522V508.9L956.1 507.7L933.8 481.6L933 476.2L929.5 470.8L928.3 465.4L924.5 460.4C923.7 461.6 923.7 463.1 924.9 464.2L925.7 465.4L926.9 470.4L926.1 470L925.3 468.5L918 463.9V465.1C918 465.9 918.4 466.3 918.8 467L924.2 471.2L924.6 472.4L924.2 473.2L921.9 471.3L915 469.8V471.7L920 472.9L923.5 475.2" fill="#FEC55E"/>
<path opacity="0.3" d="M933.1 476.2L930.4 475.4C929.6 475.4 929.2 475.4 928.9 475.8L926.6 477.7V478.1L928.9 476.6C929.3 476.2 930.1 476.2 930.4 476.2H933.1Z" fill="#191C3C"/>
<path opacity="0.3" d="M972.7 521.1L975.7 521.5V508.8H974.6L972.7 521.1Z" fill="#191C3C"/>
<path d="M1002.2 504.2L991.1 506.1L975.7 507.6V522.6L987.6 526.5L1002.2 511.1V504.2Z" fill="#0784C3"/>
<path opacity="0.1" d="M1023.7 548.7V547.2C1023.3 546.4 1022.9 546 1022.5 545.7C1022.9 545.3 1023.3 544.9 1023.7 544.9V538.4C1023.3 538.4 1022.9 538.4 1022.9 538C1023.3 537.2 1023.3 536.5 1022.5 535.7C1022.9 535.3 1023.3 534.9 1024 534.9V531.8C1023.6 531.4 1022.8 531.4 1022.1 531.8C1020.9 532.6 1019.4 533.3 1018.3 534.1C1017.1 534.9 1017.1 536.4 1018.3 537.2C1017.1 538 1017.1 539.9 1018.7 540.3C1019.9 540.7 1021.4 541.1 1022.5 541.5C1021.3 542.3 1019.4 543 1018.7 543.8C1017.9 544.6 1017.9 545.3 1018.3 546.1C1018.3 546.5 1019.1 547.3 1019.5 547.6C1021 551.8 1019.5 551.1 1019.9 554.1C1019.9 555.3 1020.3 556.4 1020.7 557.6C1018.8 556.4 1023.8 558.8 1022.6 556.4C1021.4 554.1 1023.7 548.7 1023.7 548.7Z" fill="#3A3C4E"/>
<path opacity="0.2" d="M1022.6 537.2L1021.1 550.6L1009.6 544.5L1008.8 536.8L1005.7 533.7L1004.5 529.1L999.9 523.7C999.1 524.9 999.5 526.4 1000.3 527.5L1001.8 530.2V536.7L1000.6 537.1L996.8 531.7C995.6 532.9 995.6 534.4 996 535.9L1004.4 549.3L1024.4 563.9L1023.6 548.9V537.4H1022.4L1022.6 537.2Z" fill="#3A3C4E"/>
<path d="M1031.4 535.3L1029.1 556.8L1026.8 559.9C1025.6 561.4 1023.7 561.8 1022.2 560.7L1004.5 546.9L996.1 533.5C995.3 532.3 995.3 530.4 996.9 529.3L1000.7 534.7L1001.9 534.3V527.8L999.6 524.3C998.8 523.1 998.8 522 999.6 521.2L1000 520.8L1004.6 526.9L1005.8 531.5L1008.9 534.6L1009.7 542.3L1021.2 548.4L1022.7 535L1031.4 535.3Z" fill="#FEC55E"/>
<path opacity="0.3" d="M1031.4 535.3H1022.6V537.2H1031L1031.4 535.3Z" fill="#191C3C"/>
<path d="M1016.1 504.2L1031.1 510.3C1032.3 511.1 1033.4 512.2 1033.4 513.4V534.9H1021.5V525.3L1016.5 510.7V504.2H1016.1Z" fill="#0784C3"/>
</g>
<defs>
<linearGradient id="paint0_linear_3356_1179" x1="0" y1="792.279" x2="1920" y2="792.279" gradientUnits="userSpaceOnUse">
<stop offset="5.25057e-07" stop-color="#333333"/>
<stop offset="1" stop-color="#222222"/>
</linearGradient>
<clipPath id="clip0_3356_1179">
<rect width="1920" height="1070.2" fill="white"/>
</clipPath>
</defs>
</svg>
